<?xml version="1.0" encoding="UTF-8"?>
<svg id="Layer_2" data-name="Layer 2" xmlns="http://www.w3.org/2000/svg" viewBox="0 0 84 84">
  <defs>
    <style>
      .cls-1 {
        fill: #00c8dc;
      }

      .cls-2 {
        fill: #f2f2f2;
      }

      .cls-3 {
        fill: #333;
      }
    </style>
  </defs>
  <g id="Layer_1-2" data-name="Layer 1">
    <g>
      <polygon class="cls-2" points="55.98 45.32 59.78 45.32 57.89 33.19 55.98 45.32"/>
      <path class="cls-2" d="M63.48,8.8H20.52c-6.46,0-11.72,5.26-11.72,11.72v42.96c0,6.46,5.26,11.72,11.72,11.72h42.96c6.46,0,11.72-5.26,11.72-11.72V20.52c0-6.46-5.26-11.72-11.72-11.72ZM33.07,58.46l-3.05-15.11-3.02,15.11h-8.3l-5.3-32.92h8.56l2.28,19.71,3.44-19.71h4.81l3.53,19.34,2.23-19.34h8.57l-5.27,32.92h-8.47ZM61.85,58.46l-.91-5.44h-6.23l-.93,5.44h-8.62l7.03-32.92h11.48l6.93,32.92h-8.75Z"/>
      <path class="cls-1" d="M62.59,0H21.41C9.6,0,0,9.6,0,21.41v41.18c0,11.81,9.6,21.41,21.41,21.41h41.18c11.81,0,21.41-9.6,21.41-21.41V21.41c0-11.81-9.6-21.41-21.41-21.41ZM75.2,20.52v42.96c0,6.46-5.26,11.72-11.72,11.72H20.52c-6.46,0-11.72-5.26-11.72-11.72V20.52c0-6.46,5.26-11.72,11.72-11.72h42.96c6.46,0,11.72,5.26,11.72,11.72Z"/>
      <polygon class="cls-3" points="38.24 25.54 36.01 44.88 32.48 25.54 27.67 25.54 24.23 45.25 21.95 25.54 13.39 25.54 18.69 58.46 26.99 58.46 30.02 43.36 33.07 58.46 41.54 58.46 46.81 25.54 38.24 25.54"/>
      <path class="cls-3" d="M52.19,25.54l-7.03,32.92h8.62l.93-5.44h6.23l.91,5.44h8.75l-6.93-32.92h-11.48ZM55.98,45.32l1.92-12.13,1.88,12.13h-3.8Z"/>
    </g>
  </g>
</svg>